# xmcd
#
# Track frame offsets: 
#        150
#        20965
#        37592
#        48037
#        67662
#        79712
#        91005
#        105642
#        122747
#
# Disc length: 1817 seconds
#
# Revision: 2
# Processed by: cddbd v1.4PL0 Copyright (c) Steve Scherf et al.
# Submitted via: ExactAudioCopy v0.90b3
#
DISCID=5c071709
DTITLE=David Allan Coe - The Perfect Country And Western Song
DYEAR=1900
DGENRE=Country
TTITLE0=You Never Even Called Me By My Name (The Perfect Country And W
TTITLE0=estern Song)
TTITLE1=Long Black Veil
TTITLE2=Would You Lay With Me(In A Field Of Stone)
TTITLE3=Room Full Of Roses
TTITLE4=Take This Job And Shove It
TTITLE5=Papa Loved Mama
TTITLE6=Just Because
TTITLE7=Please Come To Boston
TTITLE8=I Can't Help It
EXTD=
EXTT0=
EXTT1=
EXTT2=
EXTT3=
EXTT4=
EXTT5=
EXTT6=
EXTT7=
EXTT8=
PLAYORDER=
